PathFileType	3	(X/Y/Z)	feet_movements_1__view2_aligned.trc
DataRate	CameraRate	NumFrames	NumMarkers	Units	OrigDataRate	OrigDataStartFrame	OrigNumFrames
100.0	100.0	13	19	mm	100.0	872	1840
Frame#	Time	pelvis			neck			head			hip_left			hip_right			knee_left			knee_right			ankle_left			ankle_right			heel_left			heel_right			toe_left			toe_right			shoulder_left			shoulder_right			elbow_left			elbow_right			wrist_left			wrist_right			
		X1	Y1	Z1	X2	Y2	Z2	X3	Y3	Z3	X4	Y4	Z4	X5	Y5	Z5	X6	Y6	Z6	X7	Y7	Z7	X8	Y8	Z8	X9	Y9	Z9	X10	Y10	Z10	X11	Y11	Z11	X12	Y12	Z12	X13	Y13	Z13	X14	Y14	Z14	X15	Y15	Z15	X16	Y16	Z16	X17	Y17	Z17	X18	Y18	Z18	X19	Y19	Z19	
872	8.71000	75.445728	938.992975	376.990335	119.739840	1366.724842	653.598671	108.748010	1517.012519	607.046450	8.425179	969.777302	357.314518	142.466283	908.208647	396.666122	97.452271	1296.778845	100.267343	247.683509	518.432665	256.412656	103.801079	1030.534167	-192.542503	122.739084	167.455109	411.685192	97.158980	978.929815	-218.730184	92.063190	135.594502	450.950607	168.214617	1159.838468	-305.256442	199.191496	52.856735	288.192984	-49.485084	1345.151336	630.629414	291.358826	1316.229776	682.626926	-217.713265	1195.244673	462.322360	434.016574	1111.068079	561.027345	-356.794577	1125.433761	272.978744	465.427550	1031.018682	334.659323
873	8.72000	75.509340	939.265601	376.648861	120.015920	1367.082264	652.745986	109.221691	1517.179817	606.096408	8.423204	970.139906	356.941171	142.595434	908.391293	396.356516	98.077052	1299.416162	103.183880	247.638633	518.445715	256.617221	105.221799	1028.589851	-185.415187	122.584135	167.375927	411.660325	98.573734	976.639812	-210.990091	91.912611	135.496572	450.921365	170.558285	1156.408127	-299.129301	199.018531	52.691276	288.158933	-49.147202	1345.871482	629.725491	291.540800	1316.698773	681.871165	-217.850935	1195.356221	462.437256	434.205980	1111.229516	560.716671	-356.969770	1125.360072	273.140832	465.354933	1030.896368	334.371972
874	8.73000	75.572953	939.538228	376.307387	120.291999	1367.439686	651.893300	109.695371	1517.347116	605.146365	8.421229	970.502510	356.567824	142.724586	908.573940	396.046911	98.701834	1302.053479	106.100417	247.593757	518.458765	256.821786	106.642519	1026.645535	-178.287870	122.429187	167.296745	411.635458	99.988488	974.349808	-203.249998	91.762032	135.398642	450.892122	172.901953	1152.977786	-293.002159	198.845566	52.525818	288.124883	-48.809319	1346.591627	628.821568	291.722775	1317.167770	681.115403	-217.988604	1195.467769	462.552152	434.395387	1111.390953	560.405997	-357.144962	1125.286384	273.302921	465.282316	1030.774054	334.084621
875	8.74000	75.636565	939.810854	375.965913	120.568078	1367.797108	651.040615	110.169051	1517.514414	604.196322	8.419254	970.865114	356.194477	142.853737	908.756587	395.737306	99.326615	1304.690796	109.016953	247.548881	518.471815	257.026350	108.063239	1024.701218	-171.160554	122.274238	167.217563	411.610591	101.403242	972.059804	-195.509904	91.611453	135.300712	450.862879	175.245621	1149.547446	-286.875018	198.672601	52.360359	288.090832	-48.471437	1347.311773	627.917646	291.904749	1317.636767	680.359642	-218.126273	1195.579317	462.667047	434.584794	1111.552389	560.095323	-357.320154	1125.212696	273.465010	465.209699	1030.651740	333.797269
876	8.75000	75.700177	940.083481	375.624440	120.844157	1368.154530	650.187930	110.642731	1517.681712	603.246279	8.417279	971.227718	355.821129	142.982889	908.939233	395.427701	99.951396	1307.328113	111.933490	247.504005	518.484865	257.230915	109.483959	1022.756902	-164.033237	122.119289	167.138381	411.585724	102.817996	969.769800	-187.769811	91.460874	135.202782	450.833637	177.589289	1146.117105	-280.747876	198.499636	52.194901	288.056782	-48.133555	1348.031919	627.013723	292.086723	1318.105765	679.603880	-218.263943	1195.690865	462.781943	434.774201	1111.713826	559.784650	-357.495347	1125.139007	273.627099	465.137082	1030.529426	333.509918
877	8.76000	75.763789	940.356107	375.282966	121.120236	1368.511952	649.335244	111.116412	1517.849010	602.296237	8.415304	971.590322	355.447782	143.112041	909.121880	395.118096	100.576177	1309.965429	114.850026	247.459129	518.497915	257.435479	110.904679	1020.812586	-156.905920	121.964341	167.059199	411.560857	104.232750	967.479796	-180.029718	91.310295	135.104852	450.804394	179.932957	1142.686765	-274.620734	198.326671	52.029442	288.022732	-47.795672	1348.752064	626.109800	292.268698	1318.574762	678.848119	-218.401612	1195.802413	462.896839	434.963607	1111.875263	559.473976	-357.670539	1125.065319	273.789188	465.064466	1030.407112	333.222567
878	8.77000	75.827401	940.628734	374.941492	121.396316	1368.869374	648.482559	111.590092	1518.016308	601.346194	8.413329	971.952926	355.074435	143.241192	909.304527	394.808491	101.200958	1312.602746	117.766563	247.414253	518.510965	257.640044	112.325399	1018.868269	-149.778604	121.809392	166.980017	411.535991	105.647504	965.189793	-172.289624	91.159716	135.006922	450.775151	182.276625	1139.256424	-268.493593	198.153705	51.863984	287.988681	-47.457790	1349.472210	625.205878	292.450672	1319.043759	678.092357	-218.539282	1195.913961	463.011734	435.153014	1112.036700	559.163302	-357.845732	1124.991630	273.951277	464.991849	1030.284798	332.935215
879	8.78000	75.891013	940.901360	374.600019	121.672395	1369.226796	647.629874	112.063772	1518.183606	600.396151	8.411354	972.315530	354.701088	143.370344	909.487173	394.498886	101.825739	1315.240063	120.683099	247.369377	518.524015	257.844609	113.746119	1016.923953	-142.651287	121.654444	166.900835	411.511124	107.062258	962.899789	-164.549531	91.009137	134.908992	450.745909	184.620293	1135.826083	-262.366451	197.980740	51.698525	287.954631	-47.119908	1350.192356	624.301955	292.632646	1319.512756	677.336595	-218.676951	1196.025509	463.126630	435.342421	1112.198137	558.852629	-358.020924	1124.917942	274.113366	464.919232	1030.162484	332.647864
880	8.79000	75.954625	941.173987	374.258545	121.948474	1369.584219	646.777188	112.537453	1518.350905	599.446108	8.409379	972.678133	354.327741	143.499495	909.669820	394.189281	102.450520	1317.877380	123.599636	247.324501	518.537064	258.049173	115.166839	1014.979637	-135.523971	121.499495	166.821653	411.486257	108.477012	960.609785	-156.809438	90.858558	134.811062	450.716666	186.963961	1132.395743	-256.239310	197.807775	51.533067	287.920580	-46.782026	1350.912501	623.398032	292.814621	1319.981753	676.580834	-218.814620	1196.137057	463.241526	435.531828	1112.359574	558.541955	-358.196117	1124.844253	274.275455	464.846615	1030.040170	332.360513
881	8.80000	76.018237	941.446613	373.917071	122.224553	1369.941641	645.924503	113.011133	1518.518203	598.496066	8.407405	973.040737	353.954393	143.628647	909.852467	393.879676	103.075302	1320.514697	126.516173	247.279625	518.550114	258.253738	116.587559	1013.035321	-128.396654	121.344547	166.742471	411.461390	109.891766	958.319781	-149.069344	90.707980	134.713132	450.687423	189.307629	1128.965402	-250.112168	197.634810	51.367608	287.886530	-46.444143	1351.632647	622.494110	292.996595	1320.450751	675.825072	-218.952290	1196.248605	463.356421	435.721234	1112.521011	558.231281	-358.371309	1124.770565	274.437543	464.773998	1029.917856	332.073161
882	8.81000	76.081850	941.719240	373.575597	122.500632	1370.299063	645.071818	113.484813	1518.685501	597.546023	8.405430	973.403341	353.581046	143.757799	910.035114	393.570070	103.700083	1323.152014	129.432709	247.234749	518.563164	258.458302	118.008279	1011.091004	-121.269337	121.189598	166.663289	411.436523	111.306520	956.029777	-141.329251	90.557401	134.615202	450.658180	191.651297	1125.535062	-243.985027	197.461845	51.202150	287.852480	-46.106261	1352.352793	621.590187	293.178569	1320.919748	675.069311	-219.089959	1196.360153	463.471317	435.910641	1112.682448	557.920607	-358.546502	1124.696877	274.599632	464.701382	1029.795543	331.785810
883	8.82000	77.187845	941.866643	373.689227	123.879155	1370.710646	644.666145	114.917201	1518.989317	597.007242	9.415030	973.606377	353.766786	144.960236	910.126888	393.611596	104.623854	1325.059327	132.226494	248.323480	518.450774	258.880884	119.733091	1010.327374	-114.983391	122.321817	166.353121	411.843465	113.099869	955.109582	-134.544202	91.705685	134.291293	451.080895	193.547267	1123.552130	-238.305416	198.634083	50.768425	288.318515	-44.662532	1352.996501	621.301586	294.474062	1321.437935	674.660108	-218.140436	1196.652089	463.988031	437.357709	1112.994019	557.981227	-357.693117	1124.846202	275.107631	465.899778	1029.849348	331.820619
884	8.83000	78.293840	942.014047	373.802856	125.257678	1371.122230	644.260473	116.349589	1519.293134	596.468461	10.424631	973.809412	353.952527	146.162673	910.218662	393.653122	105.547624	1326.966640	135.020279	249.412210	518.338383	259.303465	121.457904	1009.563743	-108.697445	123.454035	166.042953	412.250407	114.893218	954.189387	-127.759153	92.853969	133.967384	451.503609	195.443236	1121.569199	-232.625805	199.806322	50.334700	288.784550	-43.218802	1353.640208	621.012985	295.769554	1321.956122	674.250906	-217.190912	1196.944024	464.504744	438.804777	1113.305590	558.041847	-356.839732	1124.995527	275.615629	467.098175	1029.903153	331.855428
